<?xml version="1.0" encoding="utf-8"?>
<!-- Generator: Adobe Illustrator 27.2.0, SVG Export Plug-In . SVG Version: 6.00 Build 0)  -->
<svg version="1.1" id="Camada_1" xmlns="http://www.w3.org/2000/svg" xmlns:xlink="http://www.w3.org/1999/xlink" x="0px" y="0px"
	 viewBox="0 0 500 500" style="enable-background:new 0 0 500 500;" xml:space="preserve">
<style type="text/css">
	.st0{fill:#FFFFFF;}
</style>
<g>
	<path class="st0" d="M273,191.5h-99.1v103.6l103.4-103.4C275.8,191.6,274.4,191.5,273,191.5z"/>
	<path class="st0" d="M0,0v500h500V0H0z M336.8,236.3c0,30.1-20.9,55.7-49.7,62.2l59.4,59.4l-13.4,13.4l-71.3-71.3h-20.3l94.9,94.9
		l-13.4,13.4L205.2,290.5l-31.3,31.3V457h-18.9V340.8l-44.2,44.2V141.5h18.9v197.8l25.3-25.3V43h18.9v129.6H273
		c6.9,0,13.7,1.1,20.1,3.3l84.2-84.2l13.4,13.4l-80,80C327.1,197,336.8,215.9,336.8,236.3z"/>
	<polygon class="st0" points="214.6,281.2 242.9,281.2 228.8,267 	"/>
	<path class="st0" d="M297.1,198.6l-55,55l27.6,27.6h3.3c24.7,0,44.8-20.1,44.8-44.8C317.8,221.1,310,206.9,297.1,198.6z"/>
</g>
</svg>
