<?xml version="1.0" encoding="utf-8"?>
<!-- Generator: Adobe Illustrator 27.2.0, SVG Export Plug-In . SVG Version: 6.00 Build 0)  -->
<svg version="1.1" id="Camada_1" xmlns="http://www.w3.org/2000/svg" xmlns:xlink="http://www.w3.org/1999/xlink" x="0px" y="0px"
	 viewBox="0 0 312.9 340.4" style="enable-background:new 0 0 312.9 340.4;" xml:space="preserve">
<style type="text/css">
	.st0{fill:#FFFFFF;}
</style>
<g>
	<path class="st0" d="M49.7,256.4C40,249,35.1,241,35.1,232.6c0-8.4,3-15.6,9.2-21.5c6.1-5.9,13.5-8.9,22.1-8.9
		c7.9,0,13.9,2,17.8,6.1c4,4,8.6,6.2,13.9,6.4c5.3,0.3,8.4-1,9.2-3.8c0.8-2.8-4.9-6.4-17.2-11c-12.3-4.6-24-10.5-35.2-17.8
		c-11.2-7.3-16.7-19.3-16.7-36.1c0-16.8,6.1-31.1,18.3-42.9C68.8,91.4,83,85.4,99.3,85.4c16,0,30.1,3.5,42.5,10.4
		c12.4,6.9,18.5,14.6,18.5,23c0,8.4-3,15.6-9.2,21.5c-6.1,5.9-13.5,8.9-22.1,8.9c-7.9,0-13.3-1.8-16.3-5.3
		c-2.9-3.5-6.5-5.4-10.8-5.7c-4.3-0.3-6.8,1-7.7,3.8c-0.8,2.8,3.9,6.2,14.1,10.2c10.2,4,21.9,9.7,35.2,17
		c13.2,7.3,19.9,19.8,19.9,37.6c0,16.8-6.1,31.1-18.3,42.9c-12.2,11.8-28,17.8-47.4,17.8C75.5,267.5,59.5,263.8,49.7,256.4z"/>
	<path class="st0" d="M261.2,156.6c-11-11-24.4-16.5-40-16.5c-8.9,0-17,1.8-24.4,5.4c-3.7-3.6-8.1-5.4-13.2-5.4
		c-5.2,0-9.7,1.8-13.3,5.5c-3.7,3.7-5.5,8.1-5.5,13.4v144.4c0,5.2,1.8,9.7,5.5,13.3c3.7,3.7,8.1,5.5,13.3,5.5
		c5.2,0,9.6-1.8,13.3-5.5c3.7-3.7,5.5-8.1,5.5-13.3v-53.2c5.9,2,12.2,3.1,18.9,3.1c15.7,0,29-5.5,40-16.6c11-11,16.5-24.4,16.5-40
		C277.7,181,272.2,167.6,261.2,156.6z M224,180.1c0.4-4.9,3.4-8.6,6.6-8.3c3.2,0.3,5.5,4.4,5.1,9.3c-0.4,4.9-3.4,8.6-6.6,8.3
		C225.8,189.1,223.5,184.9,224,180.1z M211.8,171.8c3.2-0.3,6.2,3.4,6.6,8.3c0.4,4.9-1.9,9-5.1,9.3c-3.2,0.3-6.2-3.4-6.6-8.3
		C206.3,176.2,208.5,172.1,211.8,171.8z M202.3,203.2c-3.1,0.8-6.7-2.3-8-7c-1.3-4.7,0.3-9.2,3.4-10c3.1-0.8,6.7,2.3,8,7
		C206.9,197.9,205.4,202.4,202.3,203.2z M239.3,212.8c-0.2,4.8-4.2,8.7-9.1,8.8c-1.7,0-3.2-0.4-4.5-1.2c0,0,0,0,0,0
		c-1.3-0.8-2.9-1.2-4.5-1.2c-1.6,0-3.2,0.4-4.5,1.2c0,0-0.1,0-0.1,0c-1.3,0.8-2.9,1.2-4.5,1.2c-4.8,0-8.9-3.9-9-8.8
		c-0.1-3.4,1.7-6.4,4.3-8.1c0,0,0,0,0,0c0.1-0.1,0.2-0.1,0.3-0.2c0,0,0,0,0,0c0.5-0.3,1-0.7,1.4-1.1c0,0,0,0,0.1,0
		c1.5-1.4,2.6-3.2,3.1-5.2c1-3.9,4.6-6.9,8.8-6.9c4.3,0,7.8,2.9,8.8,6.9c0.5,2,1.6,3.8,3.1,5.2c0,0,0,0,0.1,0.1
		c0.4,0.4,0.9,0.8,1.4,1.1c0.1,0.1,0.3,0.2,0.4,0.2c0,0,0,0,0,0C237.7,206.4,239.4,209.4,239.3,212.8z M248,196.2
		c-1.3,4.7-4.8,7.8-8,7c-3.1-0.8-4.7-5.3-3.4-10c1.3-4.7,4.8-7.8,8-7C247.8,187,249.3,191.5,248,196.2z"/>
	<g>
		<g>
			<path class="st0" d="M183,79.9l-7-2.2c-2.1-0.7-3.8-1.9-4.9-3.7c-1.1-1.8-1.3-3.7-0.7-5.6c0.6-1.9,1.9-3.3,3.8-4.2
				c1.9-0.9,4-1,6.1-0.3l21.7,6.7c2.4,0.8,4.1,1.8,5,3.1c1.3,1.7,1.9,3.5,1.6,5.5c-0.3,2-1.3,3.5-3.1,4.7l-18.9,11.6l8.5,2.6
				c2.1,0.7,3.8,1.9,4.9,3.7c1.1,1.8,1.3,3.7,0.7,5.6c-0.6,1.9-1.9,3.3-3.8,4.2c-1.9,0.9-4,1-6.1,0.3l-23.2-7.2
				c-2.2-0.7-3.8-1.7-5-3.1c-1.3-1.7-1.9-3.5-1.6-5.5c0.3-2,1.3-3.5,3.1-4.7L183,79.9z"/>
		</g>
		<g>
			<path class="st0" d="M230.1,55.3l-4.3-1.3c-1.3-0.4-2.3-1.2-3-2.3c-0.7-1.1-0.8-2.3-0.5-3.5s1.1-2,2.3-2.6
				c1.2-0.5,2.5-0.6,3.8-0.2l13.4,4.2c1.5,0.5,2.5,1.1,3.1,1.9c0.8,1.1,1.2,2.2,1,3.4c-0.2,1.2-0.8,2.2-1.9,2.9l-11.7,7.2l5.3,1.6
				c1.3,0.4,2.3,1.2,3,2.3c0.7,1.1,0.8,2.3,0.5,3.5c-0.4,1.2-1.1,2-2.3,2.6c-1.2,0.5-2.5,0.6-3.8,0.2l-14.4-4.5
				c-1.3-0.4-2.4-1.1-3.1-1.9c-0.8-1.1-1.2-2.2-1-3.4c0.2-1.2,0.8-2.2,1.9-2.9L230.1,55.3z"/>
		</g>
		<g>
			<path class="st0" d="M212.3,24.4l-2.7-0.8c-0.8-0.3-1.4-0.7-1.9-1.4c-0.4-0.7-0.5-1.4-0.3-2.1c0.2-0.7,0.7-1.3,1.4-1.6
				c0.7-0.3,1.5-0.4,2.3-0.1l8.3,2.6c0.9,0.3,1.6,0.7,1.9,1.2c0.5,0.6,0.7,1.4,0.6,2.1c-0.1,0.8-0.5,1.4-1.2,1.8l-7.2,4.4l3.2,1
				c0.8,0.3,1.4,0.7,1.9,1.4c0.4,0.7,0.5,1.4,0.3,2.1c-0.2,0.7-0.7,1.3-1.4,1.6c-0.7,0.3-1.5,0.4-2.3,0.1l-8.9-2.8
				c-0.8-0.3-1.5-0.7-1.9-1.2c-0.5-0.6-0.7-1.4-0.6-2.1c0.1-0.8,0.5-1.4,1.2-1.8L212.3,24.4z"/>
		</g>
	</g>
</g>
</svg>
