<?xml version="1.0" encoding="utf-8"?>
<!-- Generator: Adobe Illustrator 27.2.0, SVG Export Plug-In . SVG Version: 6.00 Build 0)  -->
<svg version="1.1" id="Camada_1" xmlns="http://www.w3.org/2000/svg" xmlns:xlink="http://www.w3.org/1999/xlink" x="0px" y="0px"
	 viewBox="0 0 331.7 282.7" style="enable-background:new 0 0 331.7 282.7;" xml:space="preserve">
<style type="text/css">
	.st0{fill:#FFFFFF;}
</style>
<g>
	<path class="st0" d="M190.4,85.7c-0.3,0-0.7,0-1,0c-5.7,0-11.1,0.8-16.3,2.4l-10.9-10.9l-7.1-7.1h0l-10.3-10.3l-17-17
		c4.1-2.6,8.4-4.9,12.8-6.9l36.9,36.9L190.4,85.7z"/>
	<path class="st0" d="M262.5,51l-7.9,7.9l-27.4-27.4C240.2,35.9,252.1,42.6,262.5,51z"/>
	<path class="st0" d="M262.5,231.7c-20,16.2-45.4,25.9-73.1,25.9c-32.1,0-61.1-13-82.2-34l9.8-9.8c18.5,18.5,44.1,30,72.3,30
		c23.8,0,45.8-8.2,63.2-21.8L262.5,231.7z"/>
	<path class="st0" d="M227.6,86l-8.4,8.4l-1.5,1.5L153,31c5.1-1.7,10.3-3,15.7-4l12.4,12.4L227.6,86z"/>
	<path class="st0" d="M246.1,67.5l-0.1,0.1l-9.7,9.7l-26.7-26.7l-11.2-11.2l-14.2-14.2c1.8-0.1,3.5-0.1,5.3-0.1
		c5.2,0,10.3,0.3,15.3,1l18.7,18.7L246.1,67.5z"/>
	<path class="st0" d="M161.2,93.4c-4.1,2.4-7.8,5.3-11.1,8.6l-42.8-42.8c3.3-3.3,6.8-6.4,10.4-9.3L161.2,93.4z"/>
	<path class="st0" d="M280.9,213.1c-2.9,3.7-6,7.1-9.3,10.4l-9.8-9.8l-6.6-6.6l-9.8-9.8l-6.6-6.6l-49.2-49.2h19.7L280.9,213.1z"/>
	<path class="st0" d="M294.9,190.2c-2,4.4-4.4,8.7-6.9,12.8l-10.1-10.1l-6.9-6.9l-10.3-10.3v0l-34.2-34.2h19.7l11.9,11.9l7.9,7.9
		l11.1,11.1l7.3,7.3L294.9,190.2z"/>
	<line class="st0" x1="184.2" y1="25.3" x2="184.1" y2="25.3"/>
	<line class="st0" x1="227.2" y1="31.4" x2="227.2" y2="31.4"/>
	<path class="st0" d="M87.2,141.4c0,23.8,8.2,45.8,21.8,63.2l-9.9,9.9L26,141.4l73.1-73.1l0,0l9.9,9.9
		C95.3,95.6,87.2,117.5,87.2,141.4z"/>
	<path class="st0" d="M96.6,141.4c0,51.3,41.6,92.9,92.9,92.9c21.3,0,40.8-7.1,56.5-19.1l-9.9-9.9c-13.1,9.5-29.1,15.2-46.5,15.2
		c-43.6,0-79-35.4-79-79c0-17.4,5.6-33.5,15.2-46.5l-9.9-9.9C103.7,100.5,96.6,120.1,96.6,141.4z M119.1,98.2
		c0.3-0.5,0.6-0.9,0.9-1.4c0.5,0.3,1,0.7,1.5,1c-0.3,0.5-0.6,0.9-0.9,1.4c-2,3.1-3.7,6.3-5.2,9.4c-1.7-0.8-3.4-1.6-5.1-2.4
		c1.4-2.9,2.9-5.7,4.6-8.6c-0.6-0.4-1.2-0.8-1.8-1.1c-2.9,4.8-5.2,9.6-7.1,14.4c2.4,1,4.9,1.9,7.3,2.9c-1,2.5-1.8,4.9-2.5,7.4
		c-1,3.6-1.8,7.2-2.3,10.7c-1.9-0.3-3.7-0.5-5.6-0.8c0.4-2.8,0.9-5.7,1.6-8.5c-0.7-0.2-1.4-0.3-2.1-0.5c-1.2,4.8-1.9,9.5-2.2,14.3
		c2.6,0.2,5.2,0.4,7.8,0.6c-0.2,2.4-0.2,4.8-0.2,7.2c0.1,3,0.3,6,0.8,9c-1.9,0.2-3.7,0.5-5.6,0.7c-0.4-2.7-0.7-5.4-0.8-8.2
		c-0.7,0-1.4,0-2.1,0.1c0.2,4.6,0.8,9.2,1.7,13.6c2.5-0.5,5.1-0.9,7.6-1.4c0.5,2.3,1.1,4.5,1.7,6.7c0.9,2.8,1.9,5.6,3,8.3
		c-1.7,0.7-3.4,1.4-5.2,2.1c-1.1-2.5-2-5-2.8-7.5c-0.7,0.2-1.3,0.4-2,0.6c1.4,4.3,3.1,8.4,5.1,12.4c2.3-1.1,4.6-2.2,6.9-3.3
		c1,2.1,2.1,4.1,3.3,6c1.7,2.9,3.7,5.6,5.7,8.3c-1.5,1.1-2.9,2.2-4.4,3.4c-1.7-2.1-3.2-4.3-4.7-6.5c-0.6,0.4-1.2,0.7-1.8,1.1
		c2.4,3.7,5.2,7.3,8.1,10.7c1.9-1.7,3.8-3.3,5.7-5c1.5,1.7,3.1,3.4,4.7,5c2.1,2,4.3,4,6.6,5.8c-1.1,1.5-2.3,2.9-3.4,4.4
		c-2.1-1.7-4.1-3.4-6.1-5.2c-0.5,0.5-0.9,1-1.4,1.5c3.3,3.1,6.7,5.9,10.4,8.5c1.4-2.1,2.9-4.2,4.3-6.3c1.9,1.3,3.8,2.6,5.8,3.7
		c2.5,1.5,5.1,2.8,7.8,4.1c-0.7,1.7-1.4,3.4-2.2,5.1c-2.4-1.1-4.8-2.3-7.1-3.7c-0.3,0.6-0.7,1.2-1,1.8c3.9,2.2,7.9,4.1,12.1,5.8
		c0.9-2.4,1.7-4.8,2.6-7.2c2.2,0.8,4.3,1.6,6.6,2.2c3.3,0.9,6.6,1.7,10,2.2c-0.2,1.9-0.5,3.7-0.7,5.6c-2.7-0.4-5.4-0.9-8-1.6
		c-0.2,0.7-0.3,1.4-0.5,2.1c4.4,1.1,8.9,1.9,13.5,2.3c0.2-2.6,0.3-5.1,0.5-7.7c2.4,0.2,4.7,0.3,7.1,0.3c3.1,0,6.1-0.2,9.2-0.7
		c0.3,1.9,0.5,3.7,0.8,5.6c-2.8,0.4-5.7,0.6-8.4,0.7c0,0.7,0.1,1.4,0.1,2.1c4.7-0.1,9.4-0.6,14.2-1.6c-0.5-2.5-1-5.1-1.6-7.6
		c2.5-0.5,4.9-1.1,7.4-1.9c3.1-1,6.3-2.1,9.4-3.5c0.8,1.7,1.5,3.5,2.3,5.2c-2.9,1.3-5.7,2.4-8.6,3.3c0.2,0.7,0.4,1.4,0.7,2
		c4.8-1.6,9.6-3.6,14.4-6.1c-1.2-2.3-2.5-4.6-3.7-6.9c2.5-1.3,4.9-2.7,7.4-4.3c0.3,0.5,0.7,1,1,1.5c-1.6,1-3.1,2-4.7,2.9
		c1.3,2.3,2.6,4.5,4,6.8c-6.9,4-13.9,6.9-20.9,8.8c-0.5-1.8-1-3.6-1.6-5.4c2.8-0.8,5.6-1.8,8.4-2.9c-0.3-0.7-0.5-1.3-0.8-2
		c-2.3,0.9-4.5,1.7-6.8,2.4c-1.6,0.5-3.2,0.9-4.7,1.3c0.6,2.5,1.2,5.1,1.8,7.6c-6.9,1.7-13.8,2.4-20.6,2.3c0-1.9,0-3.8,0-5.6
		c2.7,0,5.5-0.1,8.2-0.4c-0.1-0.7-0.1-1.4-0.2-2.1c-2.2,0.2-4.4,0.3-6.7,0.4c-1.5,0-3.1,0-4.6-0.1c-0.1,2.6-0.2,5.2-0.3,7.7
		c-6.7-0.3-13.2-1.5-19.5-3.3c0.5-1.8,0.9-3.6,1.4-5.4c2.5,0.7,5.1,1.3,7.7,1.8c0.1-0.7,0.2-1.4,0.3-2.1c-2.5-0.5-5.1-1.1-7.5-1.8
		c-1.4-0.4-2.8-0.9-4.2-1.3c-0.8,2.4-1.6,4.9-2.3,7.3c-6.1-2.1-12-5-17.6-8.3c0.9-1.6,1.9-3.2,2.8-4.8c2.2,1.4,4.5,2.6,6.9,3.8
		c0.3-0.6,0.6-1.3,0.9-1.9c-1.9-0.9-3.8-1.9-5.6-3c-1.3-0.7-2.5-1.5-3.7-2.3c-1.4,2.1-2.7,4.3-4.1,6.4c-5.4-3.6-10.4-7.7-15-12.3
		c1.3-1.3,2.6-2.6,3.9-3.9c1.9,1.9,3.8,3.6,5.8,5.3c0.4-0.5,0.9-1.1,1.3-1.6c-1.6-1.4-3.2-2.8-4.7-4.2c-1.1-1-2.1-2.1-3.1-3.1
		c-1.9,1.7-3.7,3.4-5.6,5.2c-4.4-4.7-8.4-9.9-11.7-15.4c1.6-0.9,3.2-1.9,4.8-2.8c1.4,2.2,2.8,4.4,4.4,6.5c0.6-0.4,1.1-0.8,1.7-1.2
		c-1.5-2.1-2.9-4.2-4.3-6.4c-0.8-1.3-1.5-2.5-2.2-3.8c-2.3,1.2-4.5,2.3-6.8,3.5c-3.1-5.7-5.6-11.7-7.4-18c1.8-0.5,3.6-0.9,5.4-1.4
		c0.7,2.5,1.6,5,2.5,7.5c0.7-0.2,1.3-0.5,2-0.7c-0.8-2-1.5-4-2.1-6c-0.4-1.4-0.8-2.8-1.2-4.3c-2.5,0.6-5,1.1-7.5,1.7
		c-1.6-6.4-2.4-13-2.5-19.7c1.9,0,3.8,0,5.6,0c0,2.7,0.2,5.4,0.5,8.1c0.7-0.1,1.4-0.1,2.1-0.2c-0.2-2.2-0.4-4.3-0.4-6.5
		c0-1.5,0-3.1,0-4.6c-2.6-0.1-5.2-0.2-7.8-0.3c0.2-6.8,1.3-13.7,3.2-20.6c1.8,0.5,3.6,1,5.4,1.6c-0.8,2.8-1.4,5.6-1.9,8.4
		c0.7,0.1,1.4,0.2,2.1,0.4c0.5-2.7,1.1-5.4,1.9-8.2c0.5-1.6,1-3.2,1.5-4.7c-2.5-0.9-4.9-1.7-7.4-2.6c2.5-7,5.9-14,10.4-20.9
		c1.6,1.1,3.1,2.1,4.7,3.2c-1.8,2.8-3.4,5.6-4.9,8.4c0.6,0.3,1.3,0.7,1.9,1C116.4,102.7,117.7,100.4,119.1,98.2z"/>
	<path class="st0" d="M229.3,198.4c-11.3,7.9-25,12.5-39.8,12.5c-38.4,0-69.6-31.1-69.6-69.6c0-14.8,4.6-28.5,12.5-39.8l10,10
		c-5.5,8.6-8.6,18.8-8.6,29.8c0,30.7,24.9,55.6,55.6,55.6c11,0,21.2-3.2,29.8-8.6L229.3,198.4z"/>
	<path class="st0" d="M305.6,141.4c0,1.8,0,3.5-0.1,5.3c-0.2,5.3-0.8,10.4-1.7,15.5c-1,5.4-2.3,10.6-4,15.7l-36.5-36.5H305.6z"/>
</g>
</svg>
